# xmcd CD database file
#
# Track frame offsets:
#	150
#	17185
#	30555
#	49607
#	72930
#	89227
#	102240
#	118360
#	135147
#	150095
#	161632
#
# Disc length: 2396 seconds
#
# Revision: 0
# Processed by: cddbd v1.4PL0 Copyright (c) Steve Scherf et al.
# Submitted via: CDex 1.40Release
#
DISCID=88095a0b
DTITLE=The Voodudes - The Voodudes
DYEAR=1992
DGENRE=Blues
TTITLE0=Ruff Stuff Baby
TTITLE1=Say Yeah
TTITLE2=Lonesome Rail
TTITLE3=Lovers Trail
TTITLE4=Years of Life
TTITLE5=Don't Hurt Me Baby
TTITLE6=Bubba Shuffle
TTITLE7=Tough Love
TTITLE8=Get Up And Change Your Life
TTITLE9=I Need You
TTITLE10=I'm A Man
EXTD=YEAR: 1992 ID3G: 0
EXTT0=
EXTT1=
EXTT2=
EXTT3=
EXTT4=
EXTT5=
EXTT6=
EXTT7=
EXTT8=
EXTT9=
EXTT10=
PLAYORDER=
